<mxfile host="app.diagrams.net" modified="2021-12-03T06:02:26.783Z" agent="5.0 (Windows NT 10.0; Win64; x64) AppleWebKit/537.36 (KHTML, like Gecko) Chrome/96.0.4664.45 Safari/537.36" etag="MuKYlqBpYmIzDFBz8rMh" version="15.8.9" type="github">
  <diagram id="C5RBs43oDa-KdzZeNtuy" name="Page-1">
    <mxGraphModel dx="981" dy="549" grid="1" gridSize="10" guides="1" tooltips="1" connect="1" arrows="1" fold="1" page="1" pageScale="1" pageWidth="827" pageHeight="1169" math="0" shadow="0">
      <root>
        <mxCell id="WIyWlLk6GJQsqaUBKTNV-0" />
        <mxCell id="WIyWlLk6GJQsqaUBKTNV-1" parent="WIyWlLk6GJQsqaUBKTNV-0" />
        <mxCell id="dJdg-9fTCSTlBK0RJ9ad-12" style="edgeStyle=orthogonalEdgeStyle;rounded=0;orthogonalLoop=1;jettySize=auto;html=1;exitX=0.5;exitY=1;exitDx=0;exitDy=0;entryX=0.5;entryY=0;entryDx=0;entryDy=0;" edge="1" parent="WIyWlLk6GJQsqaUBKTNV-1" source="dJdg-9fTCSTlBK0RJ9ad-2" target="dJdg-9fTCSTlBK0RJ9ad-4">
          <mxGeometry relative="1" as="geometry" />
        </mxCell>
        <mxCell id="dJdg-9fTCSTlBK0RJ9ad-2" value="wraplify init" style="rounded=1;whiteSpace=wrap;html=1;fontSize=12;glass=0;strokeWidth=1;shadow=0;fillColor=#d5e8d4;strokeColor=#82b366;" vertex="1" parent="WIyWlLk6GJQsqaUBKTNV-1">
          <mxGeometry x="110" y="190" width="140" height="60" as="geometry" />
        </mxCell>
        <mxCell id="dJdg-9fTCSTlBK0RJ9ad-6" value="" style="edgeStyle=orthogonalEdgeStyle;rounded=0;orthogonalLoop=1;jettySize=auto;html=1;" edge="1" parent="WIyWlLk6GJQsqaUBKTNV-1" source="dJdg-9fTCSTlBK0RJ9ad-4" target="dJdg-9fTCSTlBK0RJ9ad-5">
          <mxGeometry relative="1" as="geometry" />
        </mxCell>
        <mxCell id="dJdg-9fTCSTlBK0RJ9ad-4" value="amplify init" style="rounded=1;whiteSpace=wrap;html=1;fontSize=12;glass=0;strokeWidth=1;shadow=0;" vertex="1" parent="WIyWlLk6GJQsqaUBKTNV-1">
          <mxGeometry x="160" y="290" width="120" height="40" as="geometry" />
        </mxCell>
        <mxCell id="dJdg-9fTCSTlBK0RJ9ad-8" value="" style="edgeStyle=orthogonalEdgeStyle;rounded=0;orthogonalLoop=1;jettySize=auto;html=1;" edge="1" parent="WIyWlLk6GJQsqaUBKTNV-1" source="dJdg-9fTCSTlBK0RJ9ad-5" target="dJdg-9fTCSTlBK0RJ9ad-7">
          <mxGeometry relative="1" as="geometry" />
        </mxCell>
        <mxCell id="dJdg-9fTCSTlBK0RJ9ad-5" value="amplify add auth" style="rounded=1;whiteSpace=wrap;html=1;fontSize=12;glass=0;strokeWidth=1;shadow=0;" vertex="1" parent="WIyWlLk6GJQsqaUBKTNV-1">
          <mxGeometry x="160" y="350" width="120" height="40" as="geometry" />
        </mxCell>
        <mxCell id="dJdg-9fTCSTlBK0RJ9ad-10" value="" style="edgeStyle=orthogonalEdgeStyle;rounded=0;orthogonalLoop=1;jettySize=auto;html=1;" edge="1" parent="WIyWlLk6GJQsqaUBKTNV-1" source="dJdg-9fTCSTlBK0RJ9ad-7" target="dJdg-9fTCSTlBK0RJ9ad-9">
          <mxGeometry relative="1" as="geometry" />
        </mxCell>
        <mxCell id="dJdg-9fTCSTlBK0RJ9ad-7" value="amplify add api" style="rounded=1;whiteSpace=wrap;html=1;fontSize=12;glass=0;strokeWidth=1;shadow=0;" vertex="1" parent="WIyWlLk6GJQsqaUBKTNV-1">
          <mxGeometry x="160" y="410" width="120" height="40" as="geometry" />
        </mxCell>
        <mxCell id="dJdg-9fTCSTlBK0RJ9ad-14" value="" style="edgeStyle=orthogonalEdgeStyle;rounded=0;orthogonalLoop=1;jettySize=auto;html=1;" edge="1" parent="WIyWlLk6GJQsqaUBKTNV-1" source="dJdg-9fTCSTlBK0RJ9ad-9" target="dJdg-9fTCSTlBK0RJ9ad-13">
          <mxGeometry relative="1" as="geometry" />
        </mxCell>
        <mxCell id="dJdg-9fTCSTlBK0RJ9ad-9" value="amplify push" style="rounded=1;whiteSpace=wrap;html=1;fontSize=12;glass=0;strokeWidth=1;shadow=0;" vertex="1" parent="WIyWlLk6GJQsqaUBKTNV-1">
          <mxGeometry x="160" y="470" width="120" height="40" as="geometry" />
        </mxCell>
        <mxCell id="dJdg-9fTCSTlBK0RJ9ad-16" value="" style="edgeStyle=orthogonalEdgeStyle;rounded=0;orthogonalLoop=1;jettySize=auto;html=1;entryX=0.5;entryY=0;entryDx=0;entryDy=0;" edge="1" parent="WIyWlLk6GJQsqaUBKTNV-1" source="dJdg-9fTCSTlBK0RJ9ad-13" target="dJdg-9fTCSTlBK0RJ9ad-15">
          <mxGeometry relative="1" as="geometry">
            <Array as="points">
              <mxPoint x="330" y="550" />
              <mxPoint x="330" y="260" />
              <mxPoint x="453" y="260" />
            </Array>
          </mxGeometry>
        </mxCell>
        <mxCell id="dJdg-9fTCSTlBK0RJ9ad-13" value="Authentication Class, Component 생성" style="rounded=1;whiteSpace=wrap;html=1;fontSize=12;glass=0;strokeWidth=1;shadow=0;" vertex="1" parent="WIyWlLk6GJQsqaUBKTNV-1">
          <mxGeometry x="150" y="530" width="140" height="40" as="geometry" />
        </mxCell>
        <mxCell id="dJdg-9fTCSTlBK0RJ9ad-18" value="" style="edgeStyle=orthogonalEdgeStyle;rounded=0;orthogonalLoop=1;jettySize=auto;html=1;" edge="1" parent="WIyWlLk6GJQsqaUBKTNV-1" source="dJdg-9fTCSTlBK0RJ9ad-15" target="dJdg-9fTCSTlBK0RJ9ad-17">
          <mxGeometry relative="1" as="geometry" />
        </mxCell>
        <mxCell id="dJdg-9fTCSTlBK0RJ9ad-15" value="GUI 기반 DB Schema 편집 페이지 진입" style="rounded=1;whiteSpace=wrap;html=1;fontSize=12;glass=0;strokeWidth=1;shadow=0;" vertex="1" parent="WIyWlLk6GJQsqaUBKTNV-1">
          <mxGeometry x="387.5" y="280" width="130" height="40" as="geometry" />
        </mxCell>
        <mxCell id="dJdg-9fTCSTlBK0RJ9ad-20" value="" style="edgeStyle=orthogonalEdgeStyle;rounded=0;orthogonalLoop=1;jettySize=auto;html=1;" edge="1" parent="WIyWlLk6GJQsqaUBKTNV-1" source="dJdg-9fTCSTlBK0RJ9ad-17" target="dJdg-9fTCSTlBK0RJ9ad-19">
          <mxGeometry relative="1" as="geometry" />
        </mxCell>
        <mxCell id="dJdg-9fTCSTlBK0RJ9ad-17" value="amplify pull&lt;br&gt;amplify codegen" style="rounded=1;whiteSpace=wrap;html=1;fontSize=12;glass=0;strokeWidth=1;shadow=0;" vertex="1" parent="WIyWlLk6GJQsqaUBKTNV-1">
          <mxGeometry x="387.5" y="340" width="130" height="40" as="geometry" />
        </mxCell>
        <mxCell id="dJdg-9fTCSTlBK0RJ9ad-22" value="" style="edgeStyle=orthogonalEdgeStyle;rounded=0;orthogonalLoop=1;jettySize=auto;html=1;" edge="1" parent="WIyWlLk6GJQsqaUBKTNV-1" source="dJdg-9fTCSTlBK0RJ9ad-19" target="dJdg-9fTCSTlBK0RJ9ad-21">
          <mxGeometry relative="1" as="geometry" />
        </mxCell>
        <mxCell id="dJdg-9fTCSTlBK0RJ9ad-19" value="사용자가 입력한 DB Schema 재가공" style="rounded=1;whiteSpace=wrap;html=1;fontSize=12;glass=0;strokeWidth=1;shadow=0;" vertex="1" parent="WIyWlLk6GJQsqaUBKTNV-1">
          <mxGeometry x="387.5" y="400" width="130" height="40" as="geometry" />
        </mxCell>
        <mxCell id="dJdg-9fTCSTlBK0RJ9ad-24" value="" style="edgeStyle=orthogonalEdgeStyle;rounded=0;orthogonalLoop=1;jettySize=auto;html=1;" edge="1" parent="WIyWlLk6GJQsqaUBKTNV-1" source="dJdg-9fTCSTlBK0RJ9ad-21" target="dJdg-9fTCSTlBK0RJ9ad-23">
          <mxGeometry relative="1" as="geometry" />
        </mxCell>
        <mxCell id="dJdg-9fTCSTlBK0RJ9ad-21" value="가공한 DB 데이터 기반 테이블 별 Class 생성" style="rounded=1;whiteSpace=wrap;html=1;fontSize=12;glass=0;strokeWidth=1;shadow=0;" vertex="1" parent="WIyWlLk6GJQsqaUBKTNV-1">
          <mxGeometry x="386.25" y="460" width="132.5" height="50" as="geometry" />
        </mxCell>
        <mxCell id="dJdg-9fTCSTlBK0RJ9ad-23" value="가공한 DB 데이터 기반 테이블 별 CRUDL Component 생성" style="rounded=1;whiteSpace=wrap;html=1;fontSize=12;glass=0;strokeWidth=1;shadow=0;" vertex="1" parent="WIyWlLk6GJQsqaUBKTNV-1">
          <mxGeometry x="350" y="530" width="205" height="50" as="geometry" />
        </mxCell>
      </root>
    </mxGraphModel>
  </diagram>
</mxfile>
